<svg height="64" viewBox="0 0 16.933333 16.933334" width="64" xmlns="http://www.w3.org/2000/svg">
<title>khadas logo</title>
<path d="m2.4413,1.4599h12.2208a.8821,.8821 0 0,1 .8821.8821v12.1264a.8821,.8821 0 0,1 -.8821.8821h-12.2208a.8821,.8821 0 0,1 -.8821-.8821v-12.1264a.8821,.8821 0 0,1 .8821-.8821" fill="none" stroke="#0e4562" stroke-width=".465"/>
<path d="m5.1456,2.7812v3.4158" fill="#f00" stroke="#e60012" stroke-linecap="round" stroke-width=".765"/>
<path d="m14.1751,13.9424-4.1667-4.1627" fill="#0749d2" stroke="#f8b62d" stroke-linecap="round" stroke-width=".765"/>
<path d="m11.0721,13.9829-2.6075-2.6272" fill="#f00" stroke="#8fc31f" stroke-linecap="round" stroke-width=".765"/>
<path d="m2.9887,13.9907 11.1846-11.1953" fill="#0749d2" stroke="#1e95d4" stroke-linecap="round" stroke-width=".765"/>
<path d="m2.9603,2.753 .0309,5.9462c.0392.8915.9367,1.2542 1.5658.6629l6.6145-6.5623" fill="none" stroke="#c9caca" stroke-linecap="round" stroke-width=".765"/>
</svg>
